<svg xmlns="http://www.w3.org/2000/svg" xmlns:xlink="http://www.w3.org/1999/xlink" width="100" zoomAndPan="magnify" viewBox="0 0 75 74.999997" height="100" preserveAspectRatio="xMidYMid meet" version="1.0"><defs><clipPath id="667da42411"><path d="M 11.210938 7.5 L 63.710938 7.5 L 63.710938 67.5 L 11.210938 67.5 Z M 11.210938 7.5 " clip-rule="nonzero"/></clipPath></defs><g clip-path="url(#667da42411)"><path fill="#e44d26" d="M 15.976562 61.367188 L 11.195312 7.675781 L 63.722656 7.675781 L 58.9375 61.359375 L 37.425781 67.328125 Z M 15.976562 61.367188 " fill-opacity="1" fill-rule="nonzero"/></g><path fill="#f16529" d="M 54.84375 57.9375 L 58.933594 12.066406 L 37.460938 12.066406 L 37.460938 62.765625 Z M 54.84375 57.9375 " fill-opacity="1" fill-rule="nonzero"/><path fill="#ebebeb" d="M 37.4375 18.648438 L 20.96875 18.648438 L 22.742188 38.5625 L 37.460938 38.5625 L 37.460938 31.976562 L 28.757812 31.976562 L 28.15625 25.234375 L 37.460938 25.234375 L 37.460938 18.648438 Z M 37.460938 49.058594 L 37.429688 49.066406 L 30.105469 47.085938 L 29.640625 41.835938 L 23.035156 41.835938 L 23.957031 52.171875 L 37.429688 55.902344 L 37.460938 55.890625 Z M 37.460938 49.058594 " fill-opacity="1" fill-rule="nonzero"/><path fill="#ffffff" d="M 37.4375 38.5625 L 45.535156 38.5625 L 44.789062 47.101562 L 37.457031 49.082031 L 37.457031 55.933594 L 50.9375 52.191406 L 52.742188 31.972656 L 37.460938 31.972656 Z M 53.753906 20.417969 L 53.910156 18.648438 L 37.433594 18.648438 L 37.433594 25.234375 L 53.316406 25.234375 L 53.449219 23.753906 Z M 53.753906 20.417969 " fill-opacity="1" fill-rule="nonzero"/></svg>