<svg xmlns="http://www.w3.org/2000/svg" xmlns:xlink="http://www.w3.org/1999/xlink" width="100" zoomAndPan="magnify" viewBox="0 0 75 74.999997" height="100" preserveAspectRatio="xMidYMid meet" version="1.0"><defs><clipPath id="3dca9dd5ff"><path d="M 7.5 41 L 33 41 L 33 53.238281 L 7.5 53.238281 Z M 7.5 41 " clip-rule="nonzero"/></clipPath><clipPath id="716d5f02fe"><path d="M 64 47 L 67.5 47 L 67.5 51 L 64 51 Z M 64 47 " clip-rule="nonzero"/></clipPath></defs><g clip-path="url(#3dca9dd5ff)"><path fill="#00618a" d="M 7.722656 50.515625 L 9.683594 50.515625 L 9.683594 42.773438 L 12.722656 49.523438 C 13.078125 50.339844 13.570312 50.628906 14.53125 50.628906 C 15.492188 50.628906 15.964844 50.339844 16.324219 49.523438 L 19.363281 42.773438 L 19.363281 50.519531 L 21.324219 50.519531 L 21.324219 42.789062 C 21.324219 42.035156 21.023438 41.667969 20.398438 41.480469 C 18.910156 41.015625 17.910156 41.417969 17.457031 42.421875 L 14.476562 49.085938 L 11.589844 42.421875 C 11.15625 41.414062 10.136719 41.011719 8.644531 41.476562 C 8.023438 41.667969 7.722656 42.03125 7.722656 42.785156 Z M 22.957031 44.214844 L 24.917969 44.214844 L 24.917969 48.480469 C 24.898438 48.710938 24.992188 49.253906 26.066406 49.269531 C 26.613281 49.28125 30.296875 49.269531 30.332031 49.269531 L 30.332031 44.191406 L 32.300781 44.191406 C 32.308594 44.191406 32.296875 51.117188 32.296875 51.148438 C 32.308594 52.855469 30.175781 53.226562 29.195312 53.253906 L 23 53.253906 L 23 51.9375 L 29.203125 51.9375 C 30.46875 51.800781 30.320312 51.175781 30.320312 50.964844 L 30.320312 50.449219 L 26.148438 50.449219 C 24.207031 50.433594 22.972656 49.585938 22.957031 48.613281 C 22.957031 48.523438 23 44.253906 22.957031 44.210938 Z M 22.957031 44.214844 " fill-opacity="1" fill-rule="nonzero"/></g><path fill="#e48e00" d="M 33.8125 50.515625 L 39.453125 50.515625 C 40.113281 50.515625 40.753906 50.375 41.265625 50.136719 C 42.113281 49.75 42.527344 49.21875 42.527344 48.527344 L 42.527344 47.097656 C 42.527344 46.53125 42.058594 46.003906 41.132812 45.652344 C 40.640625 45.460938 40.039062 45.363281 39.453125 45.363281 L 37.074219 45.363281 C 36.285156 45.363281 35.90625 45.121094 35.8125 44.59375 C 35.792969 44.53125 35.792969 44.480469 35.792969 44.417969 L 35.792969 43.527344 C 35.792969 43.476562 35.792969 43.425781 35.8125 43.363281 C 35.90625 42.960938 36.113281 42.847656 36.8125 42.78125 C 36.867188 42.78125 36.945312 42.769531 37 42.769531 L 42.605469 42.769531 L 42.605469 41.460938 L 37.09375 41.460938 C 36.304688 41.460938 35.886719 41.511719 35.511719 41.625 C 34.339844 41.992188 33.828125 42.570312 33.828125 43.578125 L 33.828125 44.722656 C 33.828125 45.601562 34.828125 46.355469 36.507812 46.53125 C 36.699219 46.542969 36.886719 46.554688 37.074219 46.554688 L 39.113281 46.554688 C 39.1875 46.554688 39.261719 46.554688 39.320312 46.570312 C 39.941406 46.617188 40.207031 46.730469 40.394531 46.957031 C 40.511719 47.074219 40.546875 47.183594 40.546875 47.304688 L 40.546875 48.449219 C 40.546875 48.589844 40.453125 48.765625 40.261719 48.914062 C 40.09375 49.066406 39.808594 49.167969 39.433594 49.191406 C 39.355469 49.191406 39.300781 49.203125 39.226562 49.203125 L 33.8125 49.203125 Z M 54.769531 48.238281 C 54.769531 49.585938 55.769531 50.339844 57.785156 50.488281 C 57.976562 50.503906 58.164062 50.511719 58.351562 50.515625 L 63.464844 50.515625 L 63.464844 49.207031 L 58.316406 49.207031 C 57.164062 49.207031 56.730469 48.917969 56.730469 48.226562 L 56.730469 41.464844 L 54.769531 41.464844 Z M 43.78125 48.308594 L 43.78125 43.648438 C 43.78125 42.464844 44.613281 41.746094 46.257812 41.519531 C 46.433594 41.496094 46.609375 41.480469 46.785156 41.480469 L 50.511719 41.480469 C 50.695312 41.480469 50.875 41.496094 51.058594 41.519531 C 52.703125 41.746094 53.535156 42.464844 53.535156 43.648438 L 53.535156 48.308594 C 53.535156 49.269531 53.183594 49.78125 52.367188 50.117188 L 54.300781 51.859375 L 52.023438 51.859375 L 50.457031 50.449219 L 48.882812 50.550781 L 46.785156 50.550781 C 46.425781 50.550781 46.050781 50.5 45.632812 50.386719 C 44.382812 50.046875 43.78125 49.390625 43.78125 48.308594 Z M 45.898438 48.191406 C 45.898438 48.253906 45.917969 48.316406 45.9375 48.394531 C 46.050781 48.933594 46.558594 49.238281 47.332031 49.238281 L 49.113281 49.238281 L 47.476562 47.761719 L 49.753906 47.761719 L 51.179688 49.046875 C 51.441406 48.910156 51.617188 48.695312 51.675781 48.417969 C 51.695312 48.355469 51.695312 48.292969 51.695312 48.230469 L 51.695312 43.761719 C 51.695312 43.710938 51.695312 43.644531 51.675781 43.585938 C 51.558594 43.082031 51.050781 42.792969 50.292969 42.792969 L 47.335938 42.792969 C 46.464844 42.792969 45.898438 43.171875 45.898438 43.761719 L 45.898438 48.195312 Z M 45.898438 48.191406 " fill-opacity="1" fill-rule="nonzero"/><path fill="#00618a" d="M 65.191406 39.296875 C 63.984375 39.265625 63.0625 39.375 62.277344 39.707031 C 62.050781 39.800781 61.695312 39.804688 61.65625 40.085938 C 61.78125 40.214844 61.800781 40.40625 61.898438 40.566406 C 62.085938 40.867188 62.402344 41.277344 62.6875 41.488281 C 62.996094 41.722656 63.316406 41.972656 63.648438 42.175781 C 64.238281 42.535156 64.898438 42.742188 65.464844 43.101562 C 65.800781 43.3125 66.132812 43.582031 66.460938 43.820312 C 66.621094 43.9375 66.730469 44.125 66.941406 44.195312 L 66.941406 44.164062 C 66.828125 44.023438 66.800781 43.828125 66.699219 43.683594 L 66.253906 43.238281 C 65.816406 42.65625 65.265625 42.152344 64.675781 41.730469 C 64.207031 41.394531 63.15625 40.9375 62.960938 40.394531 L 62.925781 40.359375 C 63.257812 40.320312 63.648438 40.199219 63.957031 40.117188 C 64.472656 39.980469 64.933594 40.015625 65.464844 39.878906 L 66.1875 39.671875 L 66.1875 39.535156 C 65.917969 39.261719 65.726562 38.894531 65.429688 38.644531 C 64.664062 37.992188 63.824219 37.339844 62.960938 36.792969 C 62.484375 36.492188 61.890625 36.296875 61.386719 36.039062 C 61.214844 35.953125 60.914062 35.910156 60.800781 35.765625 C 60.535156 35.425781 60.390625 34.996094 60.183594 34.605469 C 59.753906 33.777344 59.332031 32.871094 58.949219 32 C 58.691406 31.40625 58.519531 30.820312 58.195312 30.285156 C 56.636719 27.726562 54.960938 26.183594 52.367188 24.664062 C 51.8125 24.34375 51.148438 24.214844 50.445312 24.046875 L 49.3125 23.980469 C 49.082031 23.882812 48.84375 23.601562 48.625 23.464844 C 47.765625 22.921875 45.558594 21.742188 44.921875 23.292969 C 44.519531 24.269531 45.523438 25.226562 45.882812 25.726562 C 46.136719 26.074219 46.457031 26.464844 46.636719 26.855469 C 46.753906 27.113281 46.777344 27.371094 46.878906 27.644531 C 47.125 28.3125 47.34375 29.046875 47.667969 29.664062 C 47.828125 29.980469 48.007812 30.308594 48.214844 30.589844 C 48.339844 30.761719 48.558594 30.839844 48.59375 31.105469 C 48.378906 31.402344 48.367188 31.859375 48.25 32.238281 C 47.714844 33.925781 47.914062 36.023438 48.695312 37.273438 C 48.933594 37.65625 49.496094 38.480469 50.273438 38.164062 C 50.949219 37.890625 50.796875 37.035156 50.992188 36.28125 C 51.035156 36.109375 51.007812 35.984375 51.097656 35.871094 L 51.097656 35.902344 L 51.714844 37.136719 C 52.167969 37.871094 52.980469 38.640625 53.667969 39.160156 C 54.023438 39.429688 54.308594 39.894531 54.765625 40.050781 L 54.765625 40.015625 L 54.730469 40.015625 C 54.640625 39.878906 54.503906 39.820312 54.386719 39.707031 C 54.121094 39.445312 53.820312 39.117188 53.597656 38.816406 C 52.972656 37.96875 52.421875 37.042969 51.917969 36.074219 C 51.679688 35.613281 51.46875 35.105469 51.265625 34.636719 C 51.1875 34.457031 51.191406 34.183594 51.027344 34.089844 C 50.804688 34.433594 50.480469 34.710938 50.308594 35.117188 C 50.03125 35.765625 49.996094 36.558594 49.894531 37.378906 C 49.835938 37.398438 49.863281 37.386719 49.828125 37.414062 C 49.347656 37.296875 49.179688 36.804688 49.003906 36.382812 C 48.554688 35.316406 48.472656 33.601562 48.867188 32.375 C 48.96875 32.058594 49.429688 31.058594 49.242188 30.765625 C 49.15625 30.472656 48.859375 30.300781 48.695312 30.078125 C 48.492188 29.800781 48.289062 29.4375 48.144531 29.117188 C 47.777344 28.289062 47.605469 27.355469 47.21875 26.515625 C 47.035156 26.113281 46.722656 25.707031 46.464844 25.351562 C 46.183594 24.957031 45.863281 24.664062 45.644531 24.191406 C 45.566406 24.019531 45.457031 23.746094 45.574219 23.574219 C 45.597656 23.460938 45.667969 23.390625 45.78125 23.367188 C 45.980469 23.214844 46.535156 23.417969 46.742188 23.503906 C 47.289062 23.734375 47.75 23.949219 48.214844 24.257812 C 48.441406 24.402344 48.664062 24.691406 48.9375 24.773438 L 49.242188 24.773438 C 49.726562 24.882812 50.265625 24.808594 50.71875 24.945312 C 51.515625 25.1875 52.230469 25.5625 52.878906 25.972656 C 54.855469 27.21875 56.472656 28.996094 57.578125 31.117188 C 57.753906 31.457031 57.832031 31.78125 57.988281 32.144531 C 58.304688 32.871094 58.703125 33.625 59.019531 34.335938 C 59.332031 35.046875 59.636719 35.765625 60.082031 36.359375 C 60.3125 36.667969 61.214844 36.835938 61.625 37.007812 C 61.910156 37.128906 62.382812 37.257812 62.652344 37.421875 C 63.171875 37.734375 63.675781 38.105469 64.164062 38.449219 C 64.40625 38.621094 65.152344 38.996094 65.191406 39.304688 Z M 65.191406 39.296875 " fill-opacity="1" fill-rule="nonzero"/><path fill="#00618a" d="M 49.863281 26.238281 C 49.609375 26.234375 49.433594 26.265625 49.246094 26.308594 L 49.246094 26.34375 L 49.277344 26.34375 C 49.398438 26.589844 49.609375 26.746094 49.757812 26.960938 L 50.101562 27.679688 L 50.136719 27.644531 C 50.347656 27.496094 50.445312 27.257812 50.445312 26.890625 C 50.359375 26.800781 50.347656 26.6875 50.273438 26.582031 C 50.175781 26.441406 49.980469 26.359375 49.863281 26.238281 Z M 49.863281 26.238281 " fill-opacity="1" fill-rule="evenodd"/><g clip-path="url(#716d5f02fe)"><path fill="#e48e00" d="M 64.386719 49.171875 C 64.386719 50.035156 65.070312 50.613281 65.832031 50.613281 C 66.597656 50.613281 67.28125 50.035156 67.28125 49.171875 C 67.28125 48.308594 66.597656 47.726562 65.832031 47.726562 C 65.070312 47.726562 64.386719 48.308594 64.386719 49.171875 Z M 66.957031 49.171875 C 66.957031 49.824219 66.453125 50.316406 65.832031 50.316406 C 65.207031 50.316406 64.710938 49.824219 64.710938 49.171875 C 64.710938 48.515625 65.203125 48.027344 65.832031 48.027344 C 66.453125 48.027344 66.957031 48.515625 66.957031 49.171875 Z M 66.222656 49.996094 L 66.546875 49.996094 L 66.074219 49.269531 C 66.328125 49.242188 66.519531 49.121094 66.519531 48.820312 C 66.519531 48.484375 66.308594 48.347656 65.898438 48.347656 L 65.253906 48.347656 L 65.253906 49.996094 L 65.53125 49.996094 L 65.53125 49.28125 L 65.789062 49.28125 Z M 65.53125 49.050781 L 65.53125 48.578125 L 65.851562 48.578125 C 66.019531 48.578125 66.21875 48.609375 66.21875 48.800781 C 66.21875 49.03125 66.039062 49.050781 65.828125 49.050781 Z M 65.53125 49.050781 " fill-opacity="1" fill-rule="evenodd"/></g></svg>