<svg xmlns="http://www.w3.org/2000/svg" xmlns:xlink="http://www.w3.org/1999/xlink" width="100" zoomAndPan="magnify" viewBox="0 0 75 74.999997" height="100" preserveAspectRatio="xMidYMid meet" version="1.0"><defs><clipPath id="b1be3fe27f"><path d="M 7.5 7.5 L 66 7.5 L 66 67.5 L 7.5 67.5 Z M 7.5 7.5 " clip-rule="nonzero"/></clipPath></defs><g clip-path="url(#b1be3fe27f)"><path fill="#ffffff" d="M 65.296875 44.03125 C 65.046875 42.902344 64.019531 41.582031 61.953125 41.582031 C 61.527344 41.582031 61.066406 41.636719 60.539062 41.746094 C 59.574219 41.945312 58.753906 42.039062 58.027344 42.074219 C 63.664062 32.472656 67.324219 19.136719 63.699219 14.507812 C 58.925781 8.410156 52.5 7.5 49.09375 7.5 L 48.773438 7.5 C 47.507812 7.519531 46.191406 7.675781 44.867188 7.960938 L 39.984375 9.019531 C 39.316406 8.933594 38.640625 8.875 37.933594 8.863281 L 37.664062 8.863281 C 35.492188 8.863281 33.511719 9.324219 31.742188 10.1875 L 30.039062 9.515625 C 27.691406 8.59375 24.164062 7.492188 20.671875 7.492188 C 20.476562 7.492188 20.28125 7.496094 20.085938 7.503906 C 16.644531 7.625 13.691406 8.933594 11.542969 11.277344 C 8.859375 14.203125 7.636719 18.484375 7.914062 24 C 7.925781 24.285156 11.265625 52.5 20.726562 52.5 L 20.847656 52.5 C 22.078125 52.46875 23.25 51.976562 24.34375 51.03125 C 25.179688 51.65625 26.261719 52.027344 27.269531 52.175781 C 27.933594 52.332031 29.132812 52.554688 30.566406 52.554688 C 32.316406 52.554688 33.894531 52.195312 35.257812 51.546875 C 35.253906 52.75 35.25 54.265625 35.234375 56.210938 L 35.234375 56.3125 L 35.242188 56.414062 C 35.371094 58.347656 35.707031 60.09375 36.210938 61.460938 C 37.644531 65.359375 40.117188 67.507812 43.179688 67.507812 C 43.304688 67.507812 43.4375 67.503906 43.566406 67.496094 C 46.085938 67.339844 48.636719 65.925781 50.390625 63.714844 C 52.289062 61.320312 52.730469 58.796875 52.898438 56.859375 L 52.910156 56.742188 L 52.910156 51.058594 L 53.050781 51.074219 L 53.644531 51.125 L 53.703125 51.132812 L 53.757812 51.132812 C 53.925781 51.140625 54.101562 51.144531 54.277344 51.144531 C 56.332031 51.144531 58.863281 50.613281 60.574219 49.816406 C 62.207031 49.058594 65.945312 46.972656 65.296875 44.03125 Z M 65.296875 44.03125 " fill-opacity="1" fill-rule="nonzero"/></g><path fill="#0277bd" d="M 50.183594 49.773438 C 50.183594 49.492188 50.199219 49.261719 50.207031 49.003906 C 50.191406 48.660156 50.183594 48.410156 50.183594 48.410156 C 50.183594 48.410156 50.199219 48.398438 50.226562 48.378906 C 50.429688 44.734375 51.433594 43.328125 52.507812 42.527344 C 52.359375 42.320312 52.1875 42.09375 52.023438 41.882812 C 51.570312 41.285156 51.003906 40.546875 50.398438 39.597656 L 50.285156 39.382812 C 50.195312 39.160156 49.972656 38.773438 49.695312 38.265625 C 48.082031 35.347656 44.722656 29.277344 47.019531 25.441406 C 48.027344 23.761719 49.914062 22.792969 52.640625 22.554688 C 51.527344 19.386719 47.351562 11.746094 37.886719 11.589844 C 37.886719 11.589844 37.882812 11.589844 37.878906 11.589844 C 29.644531 11.457031 26.9375 18.945312 26.054688 23.417969 C 27.269531 22.902344 28.652344 22.589844 29.921875 22.589844 C 29.941406 22.589844 29.960938 22.589844 29.980469 22.589844 C 33.105469 22.613281 35.25 24.28125 35.875 27.164062 C 36.332031 29.28125 36.550781 31.132812 36.546875 32.828125 C 36.53125 36.535156 35.785156 38.484375 35.125 40.207031 L 34.914062 40.761719 C 34.746094 41.21875 34.566406 41.640625 34.398438 42.039062 C 34.226562 42.445312 34.074219 42.808594 33.964844 43.132812 C 34.625 43.28125 35.144531 43.496094 35.5 43.652344 L 35.707031 43.742188 C 35.769531 43.769531 35.832031 43.800781 35.890625 43.835938 C 37.046875 44.539062 37.769531 45.621094 37.921875 46.878906 C 38.007812 47.558594 37.992188 52.1875 37.964844 56.226562 C 38.082031 57.980469 38.378906 59.453125 38.773438 60.519531 C 39.328125 62.039062 40.722656 64.9375 43.402344 64.769531 C 45.269531 64.65625 47.066406 63.519531 48.257812 62.019531 C 49.535156 60.40625 50.007812 58.625 50.183594 56.621094 Z M 50.183594 49.773438 " fill-opacity="1" fill-rule="nonzero"/><path fill="#0277bd" d="M 25.792969 42.839844 C 23.59375 40.546875 22.519531 37.460938 22.921875 34.582031 C 23.3125 31.808594 23.09375 29.09375 22.972656 27.632812 C 22.933594 27.144531 22.90625 26.78125 22.910156 26.582031 C 22.910156 26.570312 22.910156 26.5625 22.914062 26.550781 C 22.914062 26.542969 22.910156 26.539062 22.910156 26.535156 C 23.074219 22.414062 24.664062 15.917969 29.039062 12.054688 C 26.90625 11.214844 23.4375 10.109375 20.183594 10.226562 C 15.078125 10.414062 10.140625 13.941406 10.636719 23.863281 C 10.824219 27.585938 15.03125 49.914062 20.78125 49.773438 C 21.605469 49.753906 22.457031 49.222656 23.335938 48.167969 C 24.722656 46.5 26.070312 44.988281 27.027344 43.9375 C 26.597656 43.609375 26.183594 43.25 25.792969 42.839844 Z M 55.667969 23.496094 C 55.6875 23.707031 55.671875 23.886719 55.636719 24.054688 C 55.679688 25.308594 55.546875 26.527344 55.40625 27.703125 C 55.304688 28.570312 55.203125 29.46875 55.175781 30.367188 C 55.144531 31.246094 55.269531 32.113281 55.402344 33.03125 C 55.707031 35.183594 56.027344 37.613281 54.355469 40.445312 C 54.664062 40.851562 54.933594 41.226562 55.148438 41.589844 C 61.4375 31.394531 63.96875 19.277344 61.550781 16.1875 C 57.894531 11.515625 52.828125 10.160156 48.816406 10.226562 C 47.5625 10.246094 46.417969 10.417969 45.445312 10.628906 C 52.367188 13.984375 55.449219 21.171875 55.667969 23.496094 Z M 61.089844 44.414062 C 57.457031 45.164062 55.707031 44.765625 54.859375 44.242188 C 54.722656 44.339844 54.585938 44.425781 54.460938 44.503906 C 53.953125 44.808594 53.152344 45.296875 52.953125 48.296875 C 53.066406 48.316406 53.167969 48.328125 53.289062 48.355469 L 53.882812 48.410156 C 55.683594 48.492188 58.039062 47.988281 59.421875 47.34375 C 62.402344 45.960938 64.027344 43.808594 61.089844 44.414062 Z M 35.214844 47.207031 C 35.164062 46.800781 34.941406 46.472656 34.542969 46.210938 L 34.394531 46.144531 C 33.902344 45.929688 33.34375 45.683594 32.453125 45.683594 L 32.449219 45.683594 C 32.277344 45.695312 32.105469 45.707031 31.929688 45.707031 C 31.859375 45.707031 31.789062 45.699219 31.71875 45.695312 C 31.074219 46.191406 30.152344 46.578125 27.878906 47.046875 C 23.816406 48.082031 26.214844 49.300781 27.773438 49.492188 C 29.28125 49.871094 32.867188 50.328125 35.246094 48.386719 C 35.242188 47.777344 35.230469 47.359375 35.214844 47.207031 Z M 35.214844 47.207031 " fill-opacity="1" fill-rule="nonzero"/><path fill="#0277bd" d="M 33.382812 28.636719 C 32.984375 29.050781 32.355469 29.410156 31.664062 29.296875 C 30.53125 29.113281 29.667969 27.753906 29.730469 27.242188 C 29.789062 26.730469 30.753906 26.464844 31.882812 26.648438 C 32.273438 26.710938 32.628906 26.824219 32.929688 26.960938 C 32.492188 26.019531 31.703125 25.480469 30.5 25.347656 C 28.363281 25.109375 26.101562 26.226562 25.644531 26.84375 C 25.652344 26.992188 25.671875 27.183594 25.691406 27.410156 C 25.816406 28.976562 26.050781 31.890625 25.621094 34.960938 C 25.335938 36.988281 26.15625 39.285156 27.757812 40.957031 C 28.789062 42.03125 29.996094 42.714844 31.183594 42.917969 C 31.335938 42.265625 31.605469 41.628906 31.882812 40.972656 C 32.039062 40.613281 32.203125 40.226562 32.355469 39.8125 L 32.578125 39.230469 C 33.179688 37.652344 33.804688 36.023438 33.816406 32.816406 C 33.824219 31.582031 33.671875 30.171875 33.382812 28.636719 Z M 52.699219 33.417969 C 52.558594 32.425781 52.414062 31.394531 52.449219 30.277344 C 52.480469 29.265625 52.589844 28.3125 52.699219 27.386719 C 52.785156 26.660156 52.847656 25.964844 52.886719 25.273438 C 51.128906 25.421875 49.960938 25.929688 49.410156 26.785156 C 49.636719 26.707031 49.898438 26.648438 50.183594 26.609375 C 51.398438 26.453125 52.289062 26.800781 52.390625 27.480469 C 52.464844 27.972656 52.042969 28.441406 51.859375 28.617188 C 51.484375 28.984375 51.007812 29.222656 50.523438 29.285156 C 50.433594 29.296875 50.347656 29.300781 50.261719 29.300781 C 49.78125 29.300781 49.320312 29.136719 48.96875 28.890625 C 49.121094 31.582031 51.105469 35.179688 52.078125 36.945312 C 52.289062 37.324219 52.449219 37.625 52.582031 37.882812 C 53.117188 36.359375 52.921875 34.96875 52.699219 33.417969 Z M 52.699219 33.417969 " fill-opacity="1" fill-rule="nonzero"/></svg>