<svg xmlns="http://www.w3.org/2000/svg" xmlns:xlink="http://www.w3.org/1999/xlink" width="100" zoomAndPan="magnify" viewBox="0 0 75 74.999997" height="100" preserveAspectRatio="xMidYMid meet" version="1.0"><defs><clipPath id="9cc9f9d282"><path d="M 51.054688 25.117188 L 57.902344 25.117188 L 57.902344 44 L 51.054688 44 Z M 51.054688 25.117188 " clip-rule="nonzero"/></clipPath><clipPath id="d28afcc06f"><path d="M 57.628906 27.394531 L 67.316406 27.394531 L 67.316406 44 L 57.628906 44 Z M 57.628906 27.394531 " clip-rule="nonzero"/></clipPath><clipPath id="874c68d561"><path d="M 7.511719 25.117188 L 32.707031 25.117188 L 32.707031 50.398438 L 7.511719 50.398438 Z M 7.511719 25.117188 " clip-rule="nonzero"/></clipPath></defs><path fill="#f03c2e" d="M 43.351562 33.722656 C 42.042969 33.722656 41.066406 34.375 41.066406 35.945312 C 41.066406 37.125 41.707031 37.945312 43.28125 37.945312 C 44.617188 37.945312 45.523438 37.152344 45.523438 35.894531 C 45.523438 34.472656 44.710938 33.722656 43.351562 33.722656 Z M 40.730469 44.796875 C 40.421875 45.183594 40.113281 45.59375 40.113281 46.074219 C 40.113281 47.039062 41.328125 47.328125 42.996094 47.328125 C 44.378906 47.328125 46.261719 47.230469 46.261719 45.933594 C 46.261719 45.15625 45.355469 45.109375 44.210938 45.039062 Z M 47.785156 33.796875 C 48.214844 34.351562 48.667969 35.125 48.667969 36.234375 C 48.667969 38.910156 46.59375 40.480469 43.59375 40.480469 C 42.828125 40.480469 42.136719 40.382812 41.707031 40.261719 L 40.921875 41.539062 L 43.257812 41.683594 C 47.382812 41.949219 49.8125 42.070312 49.8125 45.277344 C 49.8125 48.050781 47.40625 49.621094 43.257812 49.621094 C 38.945312 49.621094 37.300781 48.511719 37.300781 46.605469 C 37.300781 45.519531 37.777344 44.941406 38.609375 44.144531 C 37.824219 43.808594 37.5625 43.207031 37.5625 42.554688 C 37.5625 42.023438 37.824219 41.539062 38.253906 41.082031 C 38.683594 40.625 39.160156 40.164062 39.730469 39.632812 C 38.5625 39.054688 37.679688 37.800781 37.679688 36.015625 C 37.679688 33.242188 39.492188 31.335938 43.140625 31.335938 C 44.164062 31.335938 44.78125 31.433594 45.332031 31.578125 L 49.980469 31.578125 L 49.980469 33.628906 L 47.785156 33.796875 " fill-opacity="1" fill-rule="nonzero"/><g clip-path="url(#9cc9f9d282)"><path fill="#f03c2e" d="M 54.171875 29.414062 C 52.8125 29.414062 52.027344 28.617188 52.027344 27.242188 C 52.027344 25.867188 52.8125 25.117188 54.171875 25.117188 C 55.554688 25.117188 56.34375 25.867188 56.34375 27.242188 C 56.34375 28.617188 55.554688 29.414062 54.171875 29.414062 Z M 51.097656 43.910156 L 51.097656 42.003906 L 52.3125 41.835938 C 52.648438 41.789062 52.695312 41.714844 52.695312 41.351562 L 52.695312 34.261719 C 52.695312 33.996094 52.625 33.828125 52.386719 33.753906 L 51.097656 33.296875 L 51.359375 31.34375 L 56.292969 31.34375 L 56.292969 41.351562 C 56.292969 41.742188 56.316406 41.789062 56.675781 41.835938 L 57.890625 42.003906 L 57.890625 43.910156 L 51.097656 43.910156 " fill-opacity="1" fill-rule="nonzero"/></g><g clip-path="url(#d28afcc06f)"><path fill="#f03c2e" d="M 67.316406 42.972656 C 66.289062 43.480469 64.789062 43.9375 63.429688 43.9375 C 60.59375 43.9375 59.523438 42.78125 59.523438 40.054688 L 59.523438 33.734375 C 59.523438 33.589844 59.523438 33.496094 59.332031 33.496094 L 57.660156 33.496094 L 57.660156 31.347656 C 59.761719 31.105469 60.59375 30.042969 60.855469 27.414062 L 63.121094 27.414062 L 63.121094 30.839844 C 63.121094 31.007812 63.121094 31.082031 63.3125 31.082031 L 66.671875 31.082031 L 66.671875 33.496094 L 63.121094 33.496094 L 63.121094 39.257812 C 63.121094 40.683594 63.453125 41.238281 64.742188 41.238281 C 65.410156 41.238281 66.101562 41.066406 66.671875 40.851562 L 67.316406 42.976562 " fill-opacity="1" fill-rule="nonzero"/></g><g clip-path="url(#874c68d561)"><path fill="#f03c2e" d="M 32 36.644531 L 21.105469 25.617188 C 20.953125 25.464844 20.777344 25.34375 20.582031 25.261719 C 20.386719 25.179688 20.179688 25.140625 19.96875 25.140625 C 19.753906 25.140625 19.550781 25.179688 19.351562 25.261719 C 19.15625 25.34375 18.980469 25.464844 18.832031 25.617188 L 16.566406 27.90625 L 19.4375 30.8125 C 19.78125 30.691406 20.132812 30.675781 20.484375 30.757812 C 20.839844 30.84375 21.144531 31.011719 21.402344 31.273438 C 21.660156 31.535156 21.832031 31.847656 21.914062 32.207031 C 21.996094 32.570312 21.976562 32.925781 21.855469 33.273438 L 24.621094 36.074219 C 24.96875 35.953125 25.320312 35.933594 25.675781 36.015625 C 26.03125 36.097656 26.339844 36.273438 26.597656 36.535156 C 26.777344 36.714844 26.914062 36.925781 27.011719 37.160156 C 27.109375 37.398438 27.160156 37.644531 27.160156 37.902344 C 27.160156 38.160156 27.109375 38.40625 27.011719 38.644531 C 26.914062 38.878906 26.777344 39.089844 26.597656 39.269531 C 26.417969 39.453125 26.210938 39.59375 25.976562 39.691406 C 25.742188 39.789062 25.5 39.839844 25.246094 39.839844 C 24.992188 39.839844 24.746094 39.789062 24.511719 39.691406 C 24.277344 39.59375 24.070312 39.453125 23.890625 39.269531 C 23.621094 38.996094 23.445312 38.664062 23.371094 38.28125 C 23.292969 37.898438 23.328125 37.527344 23.476562 37.167969 L 20.894531 34.554688 L 20.894531 41.425781 C 21.085938 41.519531 21.253906 41.640625 21.402344 41.792969 C 21.582031 41.972656 21.71875 42.183594 21.816406 42.421875 C 21.914062 42.65625 21.960938 42.90625 21.960938 43.160156 C 21.960938 43.417969 21.914062 43.664062 21.816406 43.902344 C 21.71875 44.140625 21.582031 44.347656 21.402344 44.53125 C 20.65625 45.285156 19.441406 45.285156 18.699219 44.53125 C 18.519531 44.347656 18.378906 44.140625 18.28125 43.902344 C 18.183594 43.664062 18.136719 43.417969 18.136719 43.160156 C 18.136719 42.90625 18.183594 42.65625 18.28125 42.421875 C 18.378906 42.183594 18.519531 41.972656 18.699219 41.792969 C 18.878906 41.609375 19.085938 41.46875 19.324219 41.371094 L 19.324219 34.433594 C 19.085938 34.335938 18.878906 34.195312 18.699219 34.011719 C 18.421875 33.734375 18.25 33.402344 18.171875 33.015625 C 18.097656 32.632812 18.136719 32.257812 18.285156 31.894531 L 15.457031 29.03125 L 7.984375 36.59375 C 7.832031 36.746094 7.714844 36.921875 7.632812 37.121094 C 7.550781 37.320312 7.511719 37.527344 7.511719 37.742188 C 7.511719 37.960938 7.550781 38.167969 7.632812 38.367188 C 7.714844 38.566406 7.832031 38.742188 7.984375 38.894531 L 18.878906 49.921875 C 19.03125 50.074219 19.207031 50.195312 19.402344 50.277344 C 19.597656 50.359375 19.804688 50.398438 20.015625 50.398438 C 20.230469 50.398438 20.433594 50.359375 20.632812 50.277344 C 20.828125 50.195312 21.003906 50.074219 21.152344 49.921875 L 32 38.945312 C 32.152344 38.792969 32.269531 38.617188 32.351562 38.417969 C 32.429688 38.21875 32.472656 38.011719 32.472656 37.796875 C 32.472656 37.578125 32.429688 37.371094 32.351562 37.171875 C 32.269531 36.972656 32.152344 36.796875 32 36.644531 " fill-opacity="1" fill-rule="nonzero"/></g></svg>