<svg xmlns="http://www.w3.org/2000/svg" xmlns:xlink="http://www.w3.org/1999/xlink" width="100" zoomAndPan="magnify" viewBox="0 0 75 74.999997" height="100" preserveAspectRatio="xMidYMid meet" version="1.0"><defs><clipPath id="c8d322eb3b"><path d="M 10.648438 7.5 L 64.648438 7.5 L 64.648438 67.5 L 10.648438 67.5 Z M 10.648438 7.5 " clip-rule="nonzero"/></clipPath></defs><g clip-path="url(#c8d322eb3b)"><path fill="#0277bd" d="M 64.644531 7.5 L 10.65625 7.5 L 15.417969 61.183594 L 37.648438 67.5 L 59.878906 61.183594 Z M 64.644531 7.5 " fill-opacity="1" fill-rule="nonzero"/></g><path fill="#039be5" d="M 37.648438 12.238281 L 37.648438 62.605469 L 55.433594 57.550781 L 59.40625 12.238281 Z M 37.648438 12.238281 " fill-opacity="1" fill-rule="nonzero"/><path fill="#ffffff" d="M 52.101562 20.132812 L 37.648438 20.132812 L 37.648438 26.449219 L 45.429688 26.449219 L 44.953125 32.761719 L 37.648438 32.761719 L 37.648438 39.078125 L 44.636719 39.078125 L 44.160156 46.183594 L 37.648438 48.394531 L 37.648438 55.027344 L 50.195312 50.921875 L 51.304688 32.761719 Z M 52.101562 20.132812 " fill-opacity="1" fill-rule="nonzero"/><path fill="#eeeeee" d="M 37.648438 20.132812 L 37.648438 26.449219 L 23.519531 26.449219 L 23.042969 20.132812 Z M 30.34375 32.761719 L 30.664062 39.078125 L 37.648438 39.078125 L 37.648438 32.761719 Z M 30.980469 42.238281 L 24.628906 42.238281 L 25.105469 50.921875 L 37.648438 55.027344 L 37.648438 48.394531 L 31.140625 46.183594 Z M 30.980469 42.238281 " fill-opacity="1" fill-rule="nonzero"/></svg>