<svg xmlns="http://www.w3.org/2000/svg" xmlns:xlink="http://www.w3.org/1999/xlink" width="100" zoomAndPan="magnify" viewBox="0 0 75 74.999997" height="100" preserveAspectRatio="xMidYMid meet" version="1.0"><defs><clipPath id="09ead994c8"><path d="M 7.5 7.5 L 67.5 7.5 L 67.5 67.5 L 7.5 67.5 Z M 7.5 7.5 " clip-rule="nonzero"/></clipPath></defs><g clip-path="url(#09ead994c8)"><path fill="#f7df1e" d="M 7.5 7.5 L 67.5 7.5 L 67.5 67.5 L 7.5 67.5 Z M 7.5 7.5 " fill-opacity="1" fill-rule="nonzero"/></g><path fill="#000000" d="M 23.277344 57.640625 L 27.867188 54.863281 C 28.753906 56.433594 29.558594 57.761719 31.492188 57.761719 C 33.34375 57.761719 34.515625 57.035156 34.515625 54.21875 L 34.515625 35.046875 L 40.152344 35.046875 L 40.152344 54.296875 C 40.152344 60.136719 36.730469 62.796875 31.734375 62.796875 C 27.222656 62.796875 24.605469 60.460938 23.277344 57.640625 " fill-opacity="1" fill-rule="nonzero"/><path fill="#000000" d="M 43.214844 57.035156 L 47.804688 54.378906 C 49.015625 56.351562 50.585938 57.800781 53.363281 57.800781 C 55.699219 57.800781 57.191406 56.632812 57.191406 55.023438 C 57.191406 53.089844 55.660156 52.402344 53.082031 51.277344 L 51.671875 50.671875 C 47.605469 48.941406 44.90625 46.765625 44.90625 42.171875 C 44.90625 37.945312 48.125 34.722656 53.164062 34.722656 C 56.746094 34.722656 59.324219 35.972656 61.175781 39.234375 L 56.785156 42.054688 C 55.820312 40.320312 54.773438 39.636719 53.164062 39.636719 C 51.511719 39.636719 50.464844 40.683594 50.464844 42.054688 C 50.464844 43.746094 51.511719 44.429688 53.925781 45.476562 L 55.335938 46.082031 C 60.128906 48.136719 62.828125 50.230469 62.828125 54.941406 C 62.828125 60.015625 58.84375 62.796875 53.484375 62.796875 C 48.25 62.796875 44.867188 60.296875 43.214844 57.035156 " fill-opacity="1" fill-rule="nonzero"/></svg>