<svg xmlns="http://www.w3.org/2000/svg" xmlns:xlink="http://www.w3.org/1999/xlink" width="100" zoomAndPan="magnify" viewBox="0 0 75 74.999997" height="100" preserveAspectRatio="xMidYMid meet" version="1.0"><defs><clipPath id="597040aac0"><path d="M 53 7.5 L 67.5 7.5 L 67.5 22 L 53 22 Z M 53 7.5 " clip-rule="nonzero"/></clipPath><clipPath id="7d14a89cb5"><path d="M 7.5 7.5 L 67.5 7.5 L 67.5 67.5 L 7.5 67.5 Z M 7.5 7.5 " clip-rule="nonzero"/></clipPath></defs><path fill="#000080" d="M 60.4375 37.507812 C 60.4375 24.847656 50.160156 14.570312 37.5 14.570312 C 24.839844 14.570312 14.5625 24.847656 14.5625 37.507812 C 14.5625 50.164062 24.839844 60.441406 37.5 60.441406 C 50.160156 60.441406 60.4375 50.164062 60.4375 37.507812 " fill-opacity="1" fill-rule="nonzero"/><path fill="#ffffff" d="M 53.71875 28.003906 C 53.71875 24.296875 50.710938 21.285156 47.003906 21.285156 C 43.296875 21.285156 40.289062 24.296875 40.289062 28.003906 C 40.289062 31.710938 43.296875 34.71875 47.003906 34.71875 C 50.710938 34.71875 53.71875 31.710938 53.71875 28.003906 " fill-opacity="1" fill-rule="nonzero"/><g clip-path="url(#597040aac0)"><path fill="#000080" d="M 67.152344 14.5625 C 67.152344 10.859375 64.140625 7.847656 60.4375 7.847656 C 56.730469 7.847656 53.71875 10.859375 53.71875 14.5625 C 53.71875 18.269531 56.730469 21.28125 60.4375 21.28125 C 64.140625 21.28125 67.152344 18.277344 67.152344 14.5625 " fill-opacity="1" fill-rule="nonzero"/></g><path fill="#ffffff" d="M 23.851562 47.277344 L 31.285156 47.277344 L 31.285156 48.96875 L 21.933594 48.96875 L 21.933594 33.921875 L 23.851562 33.921875 Z M 23.851562 47.277344 " fill-opacity="1" fill-rule="nonzero"/><path fill="#ffffff" d="M 40.160156 48.96875 L 40.160156 47.460938 C 39.148438 48.886719 38.140625 49.441406 36.550781 49.441406 C 34.445312 49.441406 33.101562 48.289062 33.101562 46.492188 L 33.101562 38.152344 L 34.8125 38.152344 L 34.8125 45.8125 C 34.8125 47.113281 35.679688 47.941406 37.042969 47.941406 C 38.835938 47.941406 39.996094 46.496094 39.996094 44.285156 L 39.996094 38.152344 L 41.707031 38.152344 L 41.707031 48.96875 Z M 40.160156 48.96875 " fill-opacity="1" fill-rule="nonzero"/><path fill="#ffffff" d="M 54.285156 49.257812 C 53.726562 49.40625 53.460938 49.441406 53.105469 49.441406 C 51.988281 49.441406 51.453125 48.949219 51.332031 47.851562 C 50.113281 48.96875 49.019531 49.441406 47.65625 49.441406 C 45.46875 49.441406 44.109375 48.207031 44.109375 46.242188 C 44.109375 44.835938 44.75 43.867188 46.007812 43.355469 C 46.667969 43.089844 47.042969 43.003906 49.476562 42.695312 C 50.835938 42.53125 51.269531 42.21875 51.269531 41.496094 L 51.269531 41.042969 C 51.269531 40.007812 50.398438 39.433594 48.855469 39.433594 C 47.246094 39.433594 46.457031 40.027344 46.3125 41.351562 L 44.578125 41.351562 C 44.621094 40.28125 44.824219 39.660156 45.320312 39.101562 C 46.039062 38.296875 47.339844 37.84375 48.910156 37.84375 C 51.570312 37.84375 52.976562 38.875 52.976562 40.792969 L 52.976562 47.15625 C 52.976562 47.695312 53.308594 48.003906 53.910156 48.003906 C 54.011719 48.003906 54.09375 48.003906 54.285156 47.960938 Z M 51.269531 43.621094 C 50.691406 43.886719 50.316406 43.96875 48.5 44.214844 C 46.660156 44.480469 45.894531 45.066406 45.894531 46.199219 C 45.894531 47.296875 46.679688 47.933594 48.023438 47.933594 C 49.039062 47.933594 49.878906 47.605469 50.582031 46.964844 C 51.097656 46.492188 51.269531 46.140625 51.269531 45.558594 Z M 51.269531 43.621094 " fill-opacity="1" fill-rule="nonzero"/><g clip-path="url(#7d14a89cb5)"><path fill="#808080" d="M 64.234375 23.878906 C 64.628906 24.660156 64.992188 25.453125 65.316406 26.261719 L 64.679688 26.519531 C 64.359375 25.730469 64.007812 24.953125 63.621094 24.191406 Z M 66.191406 28.730469 C 66.445312 29.566406 66.664062 30.410156 66.847656 31.265625 L 66.171875 31.40625 C 65.996094 30.574219 65.78125 29.746094 65.535156 28.929688 Z M 67.277344 33.847656 C 67.386719 34.710938 67.453125 35.582031 67.484375 36.453125 L 66.796875 36.480469 C 66.765625 35.625 66.699219 34.777344 66.59375 33.929688 Z M 67.460938 39.074219 C 67.417969 39.945312 67.332031 40.816406 67.210938 41.679688 L 66.53125 41.585938 C 66.648438 40.742188 66.730469 39.890625 66.773438 39.035156 Z M 66.738281 44.253906 C 66.542969 45.105469 66.308594 45.945312 66.039062 46.777344 L 65.382812 46.5625 C 65.648438 45.75 65.875 44.929688 66.066406 44.097656 Z M 65.121094 49.226562 C 64.78125 50.03125 64.402344 50.816406 63.992188 51.589844 L 63.382812 51.265625 C 63.785156 50.511719 64.152344 49.742188 64.488281 48.957031 Z M 62.660156 53.839844 C 62.183594 54.574219 61.675781 55.28125 61.136719 55.972656 L 60.597656 55.546875 C 61.121094 54.875 61.617188 54.179688 62.085938 53.464844 Z M 59.4375 57.960938 C 58.84375 58.597656 58.21875 59.210938 57.570312 59.792969 L 57.109375 59.28125 C 57.746094 58.710938 58.351562 58.113281 58.933594 57.492188 Z M 55.550781 61.460938 C 54.855469 61.988281 54.136719 62.480469 53.398438 62.945312 L 53.03125 62.363281 C 53.753906 61.910156 54.457031 61.425781 55.136719 60.910156 Z M 51.121094 64.234375 C 50.34375 64.632812 49.546875 64.996094 48.738281 65.324219 L 48.480469 64.683594 C 49.273438 64.367188 50.046875 64.011719 50.808594 63.621094 Z M 46.273438 66.199219 C 45.4375 66.453125 44.59375 66.671875 43.738281 66.851562 L 43.59375 66.179688 C 44.429688 66 45.253906 65.789062 46.070312 65.539062 Z M 41.15625 67.28125 C 40.292969 67.386719 39.421875 67.453125 38.546875 67.484375 L 38.523438 66.796875 C 39.378906 66.765625 40.226562 66.699219 41.074219 66.597656 Z M 35.929688 67.460938 C 35.054688 67.417969 34.1875 67.332031 33.320312 67.214844 L 33.417969 66.53125 C 34.261719 66.648438 35.109375 66.730469 35.964844 66.773438 Z M 30.746094 66.738281 C 29.898438 66.542969 29.054688 66.308594 28.226562 66.039062 L 28.4375 65.382812 C 29.25 65.648438 30.070312 65.875 30.902344 66.066406 Z M 25.773438 65.121094 C 24.972656 64.78125 24.183594 64.402344 23.414062 63.992188 L 23.738281 63.386719 C 24.492188 63.785156 25.257812 64.15625 26.042969 64.488281 Z M 21.160156 62.660156 C 20.429688 62.183594 19.71875 61.679688 19.03125 61.140625 L 19.453125 60.597656 C 20.125 61.125 20.820312 61.621094 21.535156 62.085938 Z M 17.042969 59.4375 C 16.402344 58.84375 15.792969 58.222656 15.207031 57.570312 L 15.71875 57.113281 C 16.289062 57.746094 16.886719 58.351562 17.511719 58.933594 Z M 13.539062 55.554688 C 13.015625 54.855469 12.519531 54.136719 12.054688 53.398438 L 12.640625 53.03125 C 13.09375 53.753906 13.574219 54.457031 14.089844 55.140625 Z M 10.765625 51.121094 C 10.367188 50.34375 10.003906 49.550781 9.675781 48.742188 L 10.316406 48.484375 C 10.636719 49.273438 10.988281 50.046875 11.378906 50.808594 Z M 8.804688 46.273438 C 8.546875 45.4375 8.328125 44.59375 8.148438 43.738281 L 8.820312 43.597656 C 9 44.429688 9.210938 45.257812 9.460938 46.070312 Z M 7.71875 41.15625 C 7.613281 40.292969 7.546875 39.421875 7.515625 38.546875 L 8.203125 38.523438 C 8.234375 39.378906 8.300781 40.230469 8.402344 41.074219 Z M 7.539062 35.929688 C 7.582031 35.054688 7.667969 34.1875 7.785156 33.324219 L 8.46875 33.417969 C 8.351562 34.261719 8.269531 35.109375 8.226562 35.964844 Z M 8.261719 30.75 C 8.457031 29.898438 8.691406 29.058594 8.960938 28.226562 L 9.613281 28.441406 C 9.351562 29.25 9.125 30.070312 8.933594 30.902344 Z M 9.878906 25.777344 C 10.21875 24.972656 10.597656 24.183594 11.007812 23.414062 L 11.613281 23.738281 C 11.210938 24.492188 10.84375 25.261719 10.511719 26.046875 Z M 12.339844 21.160156 C 12.8125 20.429688 13.320312 19.71875 13.859375 19.03125 L 14.402344 19.457031 C 13.875 20.128906 13.378906 20.820312 12.914062 21.535156 Z M 15.558594 17.042969 C 16.15625 16.402344 16.777344 15.792969 17.425781 15.207031 L 17.886719 15.71875 C 17.253906 16.289062 16.644531 16.886719 16.0625 17.511719 Z M 19.445312 13.542969 C 20.144531 13.015625 20.859375 12.519531 21.601562 12.058594 L 21.964844 12.640625 C 21.242188 13.09375 20.542969 13.574219 19.859375 14.089844 Z M 23.878906 10.765625 C 24.65625 10.367188 25.449219 10.003906 26.257812 9.679688 L 26.515625 10.316406 C 25.726562 10.636719 24.949219 10.988281 24.191406 11.378906 Z M 28.726562 8.804688 C 29.558594 8.546875 30.40625 8.328125 31.261719 8.148438 L 31.402344 8.820312 C 30.566406 9 29.742188 9.210938 28.925781 9.460938 Z M 33.839844 7.71875 C 34.707031 7.613281 35.574219 7.546875 36.449219 7.515625 L 36.472656 8.203125 C 35.621094 8.234375 34.769531 8.300781 33.925781 8.402344 Z M 39.070312 7.539062 C 39.941406 7.585938 40.808594 7.667969 41.675781 7.789062 L 41.578125 8.472656 C 40.734375 8.351562 39.886719 8.269531 39.035156 8.226562 Z M 44.25 8.265625 C 45.101562 8.460938 45.941406 8.695312 46.769531 8.964844 L 46.558594 9.621094 C 45.746094 9.355469 44.925781 9.128906 44.09375 8.9375 Z M 49.222656 9.882812 C 50.027344 10.222656 50.816406 10.597656 51.585938 11.007812 L 51.261719 11.613281 C 50.507812 11.214844 49.738281 10.847656 48.953125 10.515625 Z M 49.222656 9.882812 " fill-opacity="1" fill-rule="nonzero"/></g></svg>