<svg xmlns="http://www.w3.org/2000/svg" xmlns:xlink="http://www.w3.org/1999/xlink" width="100" zoomAndPan="magnify" viewBox="0 0 75 74.999997" height="100" preserveAspectRatio="xMidYMid meet" version="1.0"><defs><clipPath id="c8e0d0c30e"><path d="M 10.351562 7.5 L 64.351562 7.5 L 64.351562 67.5 L 10.351562 67.5 Z M 10.351562 7.5 " clip-rule="nonzero"/></clipPath><clipPath id="42e9ad5924"><path d="M 10.351562 7.5 L 64 7.5 L 64 53 L 10.351562 53 Z M 10.351562 7.5 " clip-rule="nonzero"/></clipPath><clipPath id="8ca21d935d"><path d="M 36 22 L 64.351562 22 L 64.351562 53 L 36 53 Z M 36 22 " clip-rule="nonzero"/></clipPath></defs><g clip-path="url(#c8e0d0c30e)"><path fill="#00c853" d="M 35.796875 8.046875 C 36.757812 7.507812 37.941406 7.507812 38.898438 8.046875 C 43.644531 10.726562 57.921875 18.785156 62.667969 21.460938 C 63.628906 22.003906 64.21875 23.003906 64.21875 24.085938 C 64.21875 29.441406 64.21875 45.558594 64.21875 50.910156 C 64.21875 51.996094 63.628906 52.996094 62.667969 53.539062 C 57.921875 56.214844 43.644531 64.273438 38.898438 66.953125 C 37.941406 67.492188 36.757812 67.492188 35.796875 66.953125 C 31.054688 64.273438 16.777344 56.214844 12.03125 53.539062 C 11.074219 52.996094 10.480469 51.996094 10.480469 50.914062 C 10.480469 45.558594 10.480469 29.441406 10.480469 24.089844 C 10.480469 23.003906 11.074219 22.003906 12.03125 21.460938 C 16.777344 18.785156 31.054688 10.726562 35.796875 8.046875 Z M 35.796875 8.046875 " fill-opacity="1" fill-rule="nonzero"/></g><g clip-path="url(#42e9ad5924)"><path fill="#69f0ae" d="M 10.910156 52.292969 C 10.535156 51.785156 10.480469 51.304688 10.480469 50.660156 C 10.480469 45.335938 10.480469 29.3125 10.480469 23.988281 C 10.480469 22.910156 11.070312 21.914062 12.027344 21.375 C 16.757812 18.714844 30.984375 10.703125 35.710938 8.039062 C 36.667969 7.5 37.964844 7.511719 38.925781 8.050781 C 43.652344 10.714844 57.832031 18.65625 62.558594 21.320312 C 62.941406 21.535156 63.234375 21.792969 63.492188 22.136719 Z M 10.910156 52.292969 " fill-opacity="1" fill-rule="nonzero"/></g><path fill="#ffffff" d="M 37.351562 17.59375 C 26.417969 17.59375 17.550781 26.507812 17.550781 37.5 C 17.550781 48.492188 26.417969 57.40625 37.351562 57.40625 C 48.28125 57.40625 57.148438 48.492188 57.148438 37.5 C 57.148438 26.507812 48.28125 17.59375 37.351562 17.59375 Z M 37.351562 47.453125 C 31.890625 47.453125 27.449219 42.988281 27.449219 37.5 C 27.449219 32.011719 31.890625 27.546875 37.351562 27.546875 C 42.808594 27.546875 47.25 32.011719 47.25 37.5 C 47.25 42.988281 42.808594 47.453125 37.351562 47.453125 Z M 37.351562 47.453125 " fill-opacity="1" fill-rule="nonzero"/><g clip-path="url(#8ca21d935d)"><path fill="#00e676" d="M 63.488281 22.152344 C 64.21875 22.839844 64.207031 23.875 64.207031 24.6875 C 64.207031 30.082031 64.160156 45.429688 64.21875 50.828125 C 64.222656 51.390625 64.039062 51.984375 63.761719 52.429688 L 36.773438 37.5 Z M 63.488281 22.152344 " fill-opacity="1" fill-rule="nonzero"/></g><path fill="#ffffff" d="M 51.492188 31.8125 L 52.90625 31.8125 L 52.90625 43.1875 L 51.492188 43.1875 Z M 55.734375 31.8125 L 57.148438 31.8125 L 57.148438 43.1875 L 55.734375 43.1875 Z M 55.734375 31.8125 " fill-opacity="1" fill-rule="nonzero"/><path fill="#ffffff" d="M 48.664062 38.921875 L 59.976562 38.921875 L 59.976562 40.34375 L 48.664062 40.34375 Z M 48.664062 34.65625 L 59.976562 34.65625 L 59.976562 36.078125 L 48.664062 36.078125 Z M 48.664062 34.65625 " fill-opacity="1" fill-rule="nonzero"/></svg>