<svg xmlns="http://www.w3.org/2000/svg" xmlns:xlink="http://www.w3.org/1999/xlink" width="100" zoomAndPan="magnify" viewBox="0 0 75 74.999997" height="100" preserveAspectRatio="xMidYMid meet" version="1.0"><defs><clipPath id="8b437bf74b"><path d="M 7.5 7.5 L 67.5 7.5 L 67.5 67.5 L 7.5 67.5 Z M 7.5 7.5 " clip-rule="nonzero"/></clipPath></defs><g clip-path="url(#8b437bf74b)"><path fill="#673ab7" d="M 67.5 59.167969 C 67.5 63.769531 63.769531 67.5 59.167969 67.5 L 15.832031 67.5 C 11.230469 67.5 7.5 63.769531 7.5 59.167969 L 7.5 15.832031 C 7.5 11.230469 11.230469 7.5 15.832031 7.5 L 59.167969 7.5 C 63.769531 7.5 67.5 11.230469 67.5 15.832031 Z M 67.5 59.167969 " fill-opacity="1" fill-rule="nonzero"/></g><path fill="#ffffff" d="M 52.550781 40.167969 C 51.464844 38.667969 49.898438 37.632812 47.882812 37.082031 C 47.882812 37.082031 49.582031 36.464844 51.117188 34.167969 C 52.035156 32.699219 52.5 30.933594 52.5 28.867188 C 52.5 25.285156 51.199219 22.535156 48.601562 20.648438 C 46 18.765625 43.066406 17.5 38.082031 17.5 L 22.5 17.5 L 22.5 57.5 L 39.882812 57.5 C 44.601562 57.464844 48.148438 56.449219 50.566406 54.5 C 52.964844 52.515625 54.167969 49.582031 54.167969 45.667969 C 54.167969 43.5 53.632812 41.667969 52.550781 40.167969 Z M 32.5 24.167969 C 32.5 24.167969 39.449219 24.167969 39.582031 24.167969 C 42.117188 24.167969 44.167969 26.214844 44.167969 28.75 C 44.167969 31.285156 42.117188 33.332031 39.582031 33.332031 C 39.449219 33.332031 32.5 33.332031 32.5 33.332031 Z M 40.832031 50.832031 L 32.5 50.832031 L 32.5 40.832031 L 40.832031 40.832031 C 43.601562 40.832031 45.832031 43.066406 45.832031 45.832031 C 45.832031 48.601562 43.601562 50.832031 40.832031 50.832031 Z M 40.832031 50.832031 " fill-opacity="1" fill-rule="nonzero"/></svg>