<svg xmlns="http://www.w3.org/2000/svg" xmlns:xlink="http://www.w3.org/1999/xlink" width="100" zoomAndPan="magnify" viewBox="0 0 75 74.999997" height="100" preserveAspectRatio="xMidYMid meet" version="1.0"><defs><clipPath id="079b9db250"><path d="M 9 7.5 L 67.5 7.5 L 67.5 64 L 9 64 Z M 9 7.5 " clip-rule="nonzero"/></clipPath></defs><g clip-path="url(#079b9db250)"><path fill="#0868ac" d="M 12.777344 20.640625 C 7.617188 28.0625 8.253906 37.71875 12.203125 45.625 C 12.292969 45.8125 12.394531 46 12.488281 46.1875 L 12.671875 46.542969 C 12.707031 46.609375 12.75 46.679688 12.785156 46.746094 C 12.855469 46.875 12.921875 46.992188 12.992188 47.113281 L 13.371094 47.761719 L 13.585938 48.113281 L 14.023438 48.796875 L 14.210938 49.085938 C 14.414062 49.390625 14.625 49.699219 14.84375 49.996094 L 14.964844 50.164062 C 15.152344 50.425781 15.347656 50.679688 15.542969 50.929688 L 15.761719 51.207031 L 16.292969 51.867188 L 16.5 52.109375 C 16.742188 52.394531 16.992188 52.679688 17.242188 52.957031 C 17.265625 52.984375 17.277344 52.996094 17.285156 53.003906 C 17.53125 53.273438 17.785156 53.539062 18.039062 53.800781 L 18.28125 54.042969 L 18.882812 54.636719 L 19.128906 54.871094 C 19.402344 55.128906 19.675781 55.378906 19.957031 55.625 L 20.859375 56.390625 L 21.171875 56.636719 L 21.796875 57.125 L 22.128906 57.382812 L 22.832031 57.886719 L 23.160156 58.117188 C 23.382812 58.273438 23.613281 58.417969 23.84375 58.566406 L 24.136719 58.765625 C 24.488281 58.988281 24.84375 59.207031 25.203125 59.417969 L 25.5 59.601562 L 26.300781 60.046875 C 26.449219 60.125 26.597656 60.203125 26.746094 60.277344 L 27.316406 60.574219 L 27.453125 60.636719 L 27.6875 60.75 L 28.597656 61.167969 L 28.789062 61.253906 C 29.140625 61.410156 29.492188 61.554688 29.847656 61.695312 L 30.101562 61.796875 L 31.101562 62.167969 L 31.230469 62.210938 C 31.597656 62.339844 31.96875 62.460938 32.34375 62.574219 L 32.613281 62.65625 C 32.976562 62.769531 33.371094 62.910156 33.761719 62.980469 C 58.734375 67.535156 65.984375 47.972656 65.984375 47.972656 C 59.894531 55.910156 49.082031 58.003906 38.8125 55.671875 C 38.425781 55.582031 38.046875 55.464844 37.667969 55.351562 L 37.386719 55.265625 C 37.015625 55.152344 36.648438 55.03125 36.285156 54.90625 L 36.132812 54.851562 C 35.808594 54.734375 35.484375 54.617188 35.160156 54.492188 L 34.886719 54.382812 C 34.535156 54.242188 34.1875 54.097656 33.839844 53.945312 L 33.628906 53.851562 L 32.746094 53.441406 L 32.492188 53.320312 C 32.261719 53.210938 32.035156 53.085938 31.804688 52.953125 L 31.351562 52.71875 C 31.074219 52.570312 30.804688 52.414062 30.53125 52.257812 L 30.253906 52.101562 C 29.894531 51.890625 29.539062 51.671875 29.1875 51.449219 C 29.089844 51.386719 28.996094 51.320312 28.898438 51.257812 L 28.140625 50.753906 C 28.054688 50.699219 27.957031 50.636719 27.894531 50.582031 L 27.175781 50.0625 L 26.855469 49.820312 L 26.210938 49.3125 L 25.921875 49.082031 L 25.113281 48.402344 C 25.085938 48.375 25.054688 48.351562 25.023438 48.328125 L 24.175781 47.558594 L 23.9375 47.328125 L 23.332031 46.726562 L 23.097656 46.488281 C 22.839844 46.226562 22.59375 45.964844 22.367188 45.699219 C 22.355469 45.683594 22.339844 45.671875 22.332031 45.65625 C 22.070312 45.375 21.820312 45.085938 21.570312 44.792969 L 21.390625 44.554688 L 20.84375 43.882812 L 20.660156 43.632812 L 20.027344 42.792969 C 14.304688 35.039062 12.261719 24.316406 16.808594 15.527344 M 28.808594 14.386719 C 25.074219 19.761719 25.277344 26.972656 28.1875 32.640625 C 28.675781 33.597656 29.226562 34.515625 29.839844 35.398438 C 30.398438 36.199219 31.019531 37.152344 31.761719 37.796875 C 32.03125 38.09375 32.3125 38.378906 32.601562 38.667969 L 32.820312 38.886719 C 33.097656 39.15625 33.382812 39.421875 33.675781 39.679688 C 33.6875 39.691406 33.699219 39.703125 33.710938 39.710938 C 34.042969 40.003906 34.378906 40.257812 34.71875 40.546875 L 34.945312 40.722656 C 35.289062 40.988281 35.636719 41.242188 35.992188 41.488281 L 36.023438 41.511719 C 36.179688 41.621094 36.34375 41.71875 36.503906 41.824219 C 36.578125 41.875 36.652344 41.929688 36.730469 41.976562 C 36.984375 42.140625 37.242188 42.296875 37.503906 42.449219 L 37.613281 42.511719 L 38.296875 42.878906 C 38.378906 42.921875 38.480469 42.960938 38.542969 43.003906 L 39.023438 43.253906 C 39.046875 43.265625 39.070312 43.277344 39.097656 43.285156 C 39.425781 43.449219 39.757812 43.605469 40.09375 43.75 L 40.3125 43.84375 C 40.585938 43.957031 40.859375 44.070312 41.132812 44.175781 L 41.484375 44.300781 C 41.734375 44.394531 41.984375 44.480469 42.238281 44.5625 L 42.578125 44.671875 C 42.9375 44.78125 43.308594 44.929688 43.667969 44.988281 C 62.949219 48.183594 67.402344 33.316406 67.402344 33.316406 C 63.390625 39.097656 55.621094 41.851562 47.324219 39.699219 C 46.960938 39.601562 46.59375 39.496094 46.234375 39.382812 C 46.125 39.351562 46.015625 39.316406 45.90625 39.277344 L 45.140625 39.015625 L 44.773438 38.886719 C 44.5 38.78125 44.226562 38.671875 43.953125 38.554688 L 43.730469 38.464844 C 43.390625 38.316406 43.058594 38.160156 42.726562 37.996094 L 42.21875 37.742188 L 41.929688 37.59375 C 41.714844 37.476562 41.5 37.355469 41.289062 37.234375 L 41.136719 37.148438 C 40.875 36.996094 40.617188 36.835938 40.363281 36.675781 C 40.285156 36.625 40.207031 36.570312 40.128906 36.519531 L 39.628906 36.1875 C 39.273438 35.941406 38.929688 35.6875 38.589844 35.425781 L 38.351562 35.242188 C 34.703125 32.375 31.84375 28.457031 30.476562 24.019531 C 29.042969 19.414062 29.351562 14.242188 31.835938 10.050781 M 42.289062 9.714844 C 40.089844 12.972656 39.871094 16.980469 41.398438 20.558594 C 43.007812 24.355469 46.308594 27.335938 50.164062 28.765625 L 50.640625 28.945312 L 50.851562 29.011719 L 51.539062 29.195312 C 62.1875 31.253906 65.074219 23.730469 65.84375 22.625 C 63.316406 26.265625 59.0625 27.140625 53.847656 25.875 C 53.4375 25.773438 52.984375 25.625 52.585938 25.484375 C 52.074219 25.300781 51.574219 25.09375 51.085938 24.863281 C 50.15625 24.414062 49.28125 23.878906 48.457031 23.257812 C 43.792969 19.71875 40.890625 12.945312 43.9375 7.445312 " fill-opacity="1" fill-rule="nonzero"/></g></svg>