<svg xmlns="http://www.w3.org/2000/svg" xmlns:xlink="http://www.w3.org/1999/xlink" width="100" zoomAndPan="magnify" viewBox="0 0 75 74.999997" height="100" preserveAspectRatio="xMidYMid meet" version="1.0"><defs><clipPath id="ac990411c2"><path d="M 7.5 10 L 67.5 10 L 67.5 65 L 7.5 65 Z M 7.5 10 " clip-rule="nonzero"/></clipPath></defs><g clip-path="url(#ac990411c2)"><path fill="#00d8ff" d="M 56.789062 28.117188 C 56.171875 27.902344 55.527344 27.703125 54.863281 27.511719 C 54.972656 27.066406 55.074219 26.628906 55.164062 26.195312 C 56.621094 19.117188 55.667969 13.414062 52.410156 11.535156 C 49.285156 9.734375 44.175781 11.613281 39.019531 16.101562 C 38.523438 16.53125 38.023438 16.988281 37.527344 17.46875 C 37.195312 17.152344 36.867188 16.84375 36.535156 16.550781 C 31.128906 11.753906 25.710938 9.730469 22.457031 11.613281 C 19.335938 13.421875 18.410156 18.78125 19.722656 25.492188 C 19.851562 26.136719 20 26.800781 20.167969 27.472656 C 19.398438 27.691406 18.660156 27.921875 17.949219 28.167969 C 11.613281 30.378906 7.5625 33.839844 7.5625 37.433594 C 7.5625 41.140625 11.910156 44.863281 18.511719 47.117188 C 19.03125 47.296875 19.574219 47.464844 20.128906 47.625 C 19.949219 48.351562 19.792969 49.0625 19.660156 49.761719 C 18.40625 56.351562 19.386719 61.585938 22.5 63.378906 C 25.710938 65.234375 31.109375 63.328125 36.359375 58.738281 C 36.777344 58.378906 37.195312 57.992188 37.609375 57.589844 C 38.152344 58.109375 38.691406 58.601562 39.226562 59.066406 C 44.316406 63.441406 49.34375 65.207031 52.453125 63.410156 C 55.664062 61.550781 56.707031 55.925781 55.351562 49.085938 C 55.25 48.5625 55.128906 48.03125 54.996094 47.488281 C 55.375 47.375 55.746094 47.257812 56.109375 47.140625 C 62.972656 44.863281 67.4375 41.191406 67.4375 37.433594 C 67.4375 33.828125 63.257812 30.34375 56.789062 28.117188 Z M 55.304688 44.710938 C 54.976562 44.820312 54.640625 44.925781 54.296875 45.027344 C 53.539062 42.628906 52.515625 40.078125 51.265625 37.445312 C 52.460938 34.871094 53.441406 32.355469 54.179688 29.972656 C 54.789062 30.152344 55.386719 30.335938 55.957031 30.535156 C 61.5 32.441406 64.878906 35.261719 64.878906 37.433594 C 64.878906 39.746094 61.230469 42.75 55.304688 44.710938 Z M 52.84375 49.582031 C 53.445312 52.605469 53.527344 55.34375 53.128906 57.480469 C 52.773438 59.402344 52.058594 60.683594 51.171875 61.195312 C 49.28125 62.289062 45.25 60.871094 40.898438 57.125 C 40.398438 56.695312 39.894531 56.238281 39.390625 55.753906 C 41.078125 53.910156 42.765625 51.765625 44.410156 49.382812 C 47.304688 49.128906 50.039062 48.707031 52.519531 48.136719 C 52.640625 48.628906 52.75 49.109375 52.84375 49.582031 Z M 27.976562 61.007812 C 26.132812 61.660156 24.664062 61.679688 23.777344 61.167969 C 21.886719 60.078125 21.101562 55.875 22.175781 50.238281 C 22.296875 49.589844 22.441406 48.925781 22.613281 48.25 C 25.0625 48.792969 27.777344 49.183594 30.679688 49.417969 C 32.335938 51.746094 34.070312 53.886719 35.820312 55.761719 C 35.4375 56.132812 35.058594 56.484375 34.679688 56.8125 C 32.355469 58.84375 30.027344 60.285156 27.976562 61.007812 Z M 19.339844 44.699219 C 16.421875 43.699219 14.007812 42.40625 12.355469 40.988281 C 10.871094 39.71875 10.121094 38.457031 10.121094 37.433594 C 10.121094 35.253906 13.371094 32.472656 18.792969 30.582031 C 19.449219 30.355469 20.140625 30.136719 20.855469 29.9375 C 21.605469 32.371094 22.585938 34.917969 23.773438 37.492188 C 22.570312 40.105469 21.574219 42.695312 20.816406 45.160156 C 20.308594 45.015625 19.816406 44.859375 19.339844 44.699219 Z M 22.234375 25 C 21.109375 19.25 21.855469 14.914062 23.738281 13.828125 C 25.742188 12.667969 30.167969 14.320312 34.835938 18.464844 C 35.136719 18.730469 35.4375 19.007812 35.738281 19.292969 C 33.996094 21.160156 32.277344 23.285156 30.636719 25.601562 C 27.820312 25.863281 25.125 26.28125 22.644531 26.84375 C 22.492188 26.21875 22.351562 25.601562 22.234375 25 Z M 48.058594 31.375 C 47.46875 30.351562 46.859375 29.351562 46.242188 28.382812 C 48.152344 28.621094 49.980469 28.941406 51.699219 29.335938 C 51.183594 30.988281 50.542969 32.714844 49.785156 34.488281 C 49.242188 33.457031 48.664062 32.417969 48.058594 31.375 Z M 37.527344 21.121094 C 38.710938 22.398438 39.890625 23.824219 41.054688 25.371094 C 39.882812 25.316406 38.695312 25.289062 37.5 25.289062 C 36.316406 25.289062 35.140625 25.316406 33.976562 25.371094 C 35.136719 23.835938 36.332031 22.414062 37.527344 21.121094 Z M 26.929688 31.390625 C 26.335938 32.417969 25.773438 33.449219 25.238281 34.488281 C 24.496094 32.722656 23.855469 30.984375 23.335938 29.308594 C 25.042969 28.925781 26.867188 28.613281 28.765625 28.375 C 28.136719 29.355469 27.523438 30.363281 26.929688 31.390625 Z M 28.820312 46.667969 C 26.859375 46.453125 25.007812 46.15625 23.300781 45.785156 C 23.832031 44.078125 24.480469 42.304688 25.242188 40.5 C 25.777344 41.535156 26.34375 42.570312 26.9375 43.597656 L 26.941406 43.597656 C 27.546875 44.644531 28.175781 45.667969 28.820312 46.667969 Z M 37.597656 53.921875 C 36.386719 52.617188 35.179688 51.167969 33.996094 49.613281 C 35.144531 49.660156 36.3125 49.683594 37.5 49.683594 C 38.722656 49.683594 39.929688 49.65625 41.113281 49.601562 C 39.949219 51.1875 38.769531 52.636719 37.597656 53.921875 Z M 49.808594 40.410156 C 50.605469 42.230469 51.28125 43.996094 51.820312 45.671875 C 50.082031 46.070312 48.207031 46.386719 46.234375 46.625 C 46.855469 45.640625 47.46875 44.625 48.070312 43.578125 C 48.683594 42.523438 49.261719 41.464844 49.808594 40.410156 Z M 45.855469 42.300781 C 44.917969 43.925781 43.957031 45.472656 42.980469 46.933594 C 41.207031 47.058594 39.371094 47.125 37.5 47.125 C 35.636719 47.125 33.824219 47.070312 32.078125 46.953125 C 31.0625 45.476562 30.082031 43.921875 29.152344 42.316406 C 28.226562 40.714844 27.371094 39.097656 26.597656 37.492188 C 27.371094 35.886719 28.222656 34.265625 29.144531 32.667969 C 30.070312 31.066406 31.042969 29.519531 32.046875 28.050781 C 33.828125 27.914062 35.65625 27.84375 37.5 27.84375 C 39.355469 27.84375 41.179688 27.914062 42.960938 28.050781 C 43.953125 29.511719 44.917969 31.050781 45.847656 32.65625 C 46.785156 34.277344 47.648438 35.882812 48.425781 37.457031 C 47.652344 39.058594 46.789062 40.683594 45.855469 42.300781 Z M 51.128906 13.75 C 53.136719 14.90625 53.917969 19.566406 52.65625 25.679688 C 52.578125 26.070312 52.484375 26.464844 52.386719 26.867188 C 49.902344 26.296875 47.207031 25.871094 44.382812 25.605469 C 42.738281 23.261719 41.03125 21.132812 39.320312 19.292969 C 39.78125 18.847656 40.242188 18.425781 40.699219 18.027344 C 45.117188 14.183594 49.25 12.664062 51.128906 13.75 Z M 37.5 32.085938 C 40.453125 32.085938 42.847656 34.480469 42.847656 37.433594 C 42.847656 40.382812 40.453125 42.777344 37.5 42.777344 C 34.546875 42.777344 32.152344 40.382812 32.152344 37.433594 C 32.152344 34.480469 34.546875 32.085938 37.5 32.085938 Z M 37.5 32.085938 " fill-opacity="1" fill-rule="nonzero"/></g></svg>