<svg xmlns="http://www.w3.org/2000/svg" xmlns:xlink="http://www.w3.org/1999/xlink" width="80" zoomAndPan="magnify" viewBox="0 0 60 60" height="80" preserveAspectRatio="xMidYMid meet" version="1.0"><defs><clipPath id="8356c75339"><path d="M 32.320312 16.800781 L 48.597656 16.800781 L 48.597656 42.257812 L 32.320312 42.257812 Z M 32.320312 16.800781 " clip-rule="nonzero"/></clipPath><clipPath id="bbe224fd04"><path d="M 11.097656 37 L 39 37 L 39 49 L 11.097656 49 Z M 11.097656 37 " clip-rule="nonzero"/></clipPath><clipPath id="914c33dcd2"><path d="M 21 11.035156 L 48.597656 11.035156 L 48.597656 21.984375 L 21 21.984375 Z M 21 11.035156 " clip-rule="nonzero"/></clipPath><clipPath id="b2d515a746"><path d="M 11.097656 17 L 28 17 L 28 44 L 11.097656 44 Z M 11.097656 17 " clip-rule="nonzero"/></clipPath><clipPath id="e16dc1783e"><path d="M 27.335938 26.238281 L 43.683594 26.238281 L 43.683594 51.679688 L 27.335938 51.679688 Z M 27.335938 26.238281 " clip-rule="nonzero"/></clipPath><clipPath id="ed6bd41a05"><path d="M 16 8.179688 L 33 8.179688 L 33 34 L 16 34 Z M 16 8.179688 " clip-rule="nonzero"/></clipPath></defs><g clip-path="url(#8356c75339)"><path fill="#545454" d="M 48.597656 24.804688 L 43.640625 21.929688 L 34.804688 16.804688 L 32.328125 18.242188 L 39.761719 22.554688 L 41.164062 23.367188 L 46.117188 26.242188 L 46.117188 42.242188 L 48.597656 40.804688 L 48.597656 24.804688 " fill-opacity="1" fill-rule="nonzero"/></g><g clip-path="url(#bbe224fd04)"><path fill="#545454" d="M 29.851562 45.929688 L 38.683594 40.804688 L 38.683594 37.929688 L 29.851562 43.054688 L 24.894531 45.929688 L 13.582031 39.367188 L 11.105469 37.929688 L 11.105469 40.804688 L 24.894531 48.804688 L 29.851562 45.929688 " fill-opacity="1" fill-rule="nonzero"/></g><g clip-path="url(#914c33dcd2)"><path fill="#545454" d="M 34.804688 11.054688 L 29.851562 13.929688 L 21.015625 19.054688 L 21.015625 21.929688 L 29.851562 16.804688 L 34.804688 13.929688 L 46.117188 20.492188 L 48.597656 21.929688 L 48.597656 19.054688 L 34.804688 11.054688 " fill-opacity="1" fill-rule="nonzero"/></g><g clip-path="url(#b2d515a746)"><path fill="#545454" d="M 13.582031 36.492188 L 16.0625 37.929688 L 24.894531 43.054688 L 27.371094 41.617188 L 19.941406 37.304688 L 18.539062 36.492188 L 13.582031 33.617188 L 13.582031 17.617188 L 11.105469 19.054688 L 11.105469 35.054688 L 13.582031 36.492188 " fill-opacity="1" fill-rule="nonzero"/></g><g clip-path="url(#e16dc1783e)"><path fill="#545454" d="M 43.640625 27.679688 L 41.164062 26.242188 L 41.164062 42.242188 L 29.851562 48.804688 L 27.371094 50.242188 L 29.851562 51.679688 L 43.640625 43.679688 L 43.640625 27.679688 " fill-opacity="1" fill-rule="nonzero"/></g><g clip-path="url(#ed6bd41a05)"><path fill="#545454" d="M 16.0625 32.179688 L 18.539062 33.617188 L 18.539062 17.617188 L 29.851562 11.054688 L 32.328125 9.617188 L 29.851562 8.179688 L 16.0625 16.179688 L 16.0625 32.179688 " fill-opacity="1" fill-rule="nonzero"/></g></svg>